<?xml version="1.0" standalone="no"?>
<!DOCTYPE svg PUBLIC "-//W3C//DTD SVG 20010904//EN"
 "http://www.w3.org/TR/2001/REC-SVG-20010904/DTD/svg10.dtd">
<svg version="1.0" xmlns="http://www.w3.org/2000/svg"
 width="500.000000pt" height="500.000000pt" viewBox="0 0 500.000000 500.000000"
 preserveAspectRatio="xMidYMid meet">
<metadata>
Created by potrace 1.14, written by Peter Selinger 2001-2017
</metadata>
<g transform="translate(0.000000,500.000000) scale(0.100000,-0.100000)"
fill="#000000" stroke="none">
<path d="M1621 3727 c-48 -15 -97 -65 -112 -115 -15 -52 -9 -60 56 -63 45 -3
50 -1 53 18 2 12 14 33 28 48 61 66 156 -20 111 -102 -7 -12 -60 -71 -118
-130 -105 -108 -149 -175 -149 -226 l0 -26 200 1 200 0 0 59 0 59 -112 0 -113
0 92 93 c114 115 137 159 130 240 -5 52 -10 64 -43 98 -55 56 -138 73 -223 46z"/>
<path d="M2555 3319 c-135 -20 -249 -94 -318 -206 -84 -134 -94 -337 -24 -454
50 -83 111 -123 262 -171 221 -70 270 -99 281 -166 9 -59 -16 -105 -74 -132
-97 -46 -245 -10 -367 88 l-48 38 -35 -65 c-19 -36 -54 -103 -78 -147 l-44
-81 38 -26 c126 -83 272 -128 422 -130 121 -2 170 5 258 34 205 68 312 230
307 464 -3 119 -24 177 -88 243 -68 70 -129 101 -324 162 -125 40 -177 78
-175 130 2 67 46 106 134 118 53 7 159 -23 209 -60 23 -16 45 -26 49 -21 4 4
35 61 69 127 33 65 66 124 71 131 8 10 3 17 -22 30 -41 21 -186 73 -225 80
-15 2 -39 7 -53 10 -46 10 -174 12 -225 4z"/>
<path d="M957 3292 c-14 -3 -16 -65 -15 -698 l1 -694 183 0 184 0 0 695 c0
382 -3 695 -7 696 -24 3 -332 3 -346 1z"/>
<path d="M3383 3292 l-22 -3 0 -694 1 -694 398 -1 399 0 -2 152 -2 153 -213 0
-212 0 -1 35 c0 19 -1 263 -1 543 -1 365 -4 507 -12 508 -36 3 -315 3 -333 1z"/>
</g>
</svg>
