<?xml version="1.0" encoding="utf-8"?>
<!-- Generator: Adobe Illustrator 19.2.1, SVG Export Plug-In . SVG Version: 6.00 Build 0)  -->
<svg version="1.1" id="layer" xmlns="http://www.w3.org/2000/svg" xmlns:xlink="http://www.w3.org/1999/xlink" x="0px" y="0px"
	 viewBox="0 0 652 652" style="enable-background:new 0 0 652 652;" xml:space="preserve">
<style type="text/css">
	.st0{fill:#323232;}
</style>
<path class="st0" d="M320.6,170.3c165.8,0,300,68,300,151.9s-134.4,151.9-300,151.9s-300-68-300-151.9S155,170.3,320.6,170.3
	L320.6,170.3z M434.4,451.6c-4-5.5-8.8-10.3-14.7-14.9c-24.4,9.9-52.8,18.7-85.4,26.1C369.6,461.9,403.5,457.9,434.4,451.6
	L434.4,451.6z M416.5,434.3c-0.4-0.2-0.8-0.6-1.3-0.8c-2.9-2.1-6.3-4-9.7-5.7c-14.7,10.1-32,19.1-52,26.9
	C377,448.6,398,441.9,416.5,434.3L416.5,434.3z M402,425.9c-10.7-5-23.4-9-37.9-11.6c-1.9,4-4,7.8-6.1,11.4
	c-7.6,12.8-17,24.2-28.2,33.5C358.5,450.5,382.7,439,402,425.9L402,425.9z M360.8,413.9c-10.5-1.7-21.9-2.5-34.1-2.5h-1.1l0,0
	c-15.8,0-30.1,1.5-42.9,4c1.5,2.9,3.2,5.9,4.8,8.8c8.8,14.9,20,27.8,33.9,37.4c13.7-9.7,25-22.5,33.9-37.4
	C357,420.9,358.9,417.5,360.8,413.9L360.8,413.9z M279.2,416.2c-13.3,2.9-24.6,7.4-34.3,12.6c18.7,11.8,41.2,22.3,68,30.5
	c-11.2-9.3-20.6-20.6-28.2-33.5C282.7,422.8,280.8,419.6,279.2,416.2L279.2,416.2z M241.7,430.8c-2.3,1.5-4.4,2.9-6.5,4.4
	c-0.8,0.6-1.5,1.3-2.3,1.7c16.8,6.5,35.6,12.4,56.4,17.7C271.2,447.6,255.4,439.6,241.7,430.8L241.7,430.8z M229.7,439.4
	c-5,4.4-9.3,9-12.6,14.1c28.6,5.3,59.3,8.6,91.3,9.3C278.7,456.2,252.6,448.2,229.7,439.4L229.7,439.4z M213.5,452.8
	c3.4-5.3,7.8-10.3,12.8-14.7c-39.1-15.6-68-34.3-86.9-54.5c-23.6,6.9-40.4,14.9-48.6,23.8C122.2,427.4,164.7,443.4,213.5,452.8
	L213.5,452.8z M229.1,435.6c1.3-1.1,2.5-2.1,4-3.2c1.7-1.3,3.6-2.5,5.5-3.8c-19.1-12.8-34.1-27.3-44.8-42.5c-2.9-4.2-5.7-8.6-8-13
	c-11.2,1.9-21.5,4-31.1,6.3c-4,1.1-7.8,1.9-11.6,2.9C162,402.1,190.4,420.2,229.1,435.6L229.1,435.6z M241.7,426.8
	c10.1-5.9,22.1-10.5,36-13.7c-7.2-14.9-12.2-31.6-15.4-48.6c-26.5,1.7-51.1,4.4-73.2,8.2c2.1,4,4.6,7.8,7.4,11.8
	C207.2,399.6,222.4,413.9,241.7,426.8L241.7,426.8z M281,412.5c13-2.7,28-4.2,44.4-4.2l0,0h1.1l0,0c12.8,0,24.8,1.1,35.6,2.7
	c6.7-14.5,11.6-30.5,14.7-46.9c-16.8-0.8-34.5-1.5-52.4-1.5c-20.2,0-40,0.6-58.7,1.7C268.8,381.1,273.9,397.5,281,412.5L281,412.5z
	 M365.6,411.4c15.4,2.7,28.4,6.9,39.6,12.4c17.3-12,30.9-25.5,40.8-39.6c2.9-4.2,5.5-8.4,7.8-12.6c-22.3-3.6-47.1-6.1-73.6-7.6
	C377.2,380.7,372.4,396.7,365.6,411.4L365.6,411.4z M408.5,425.5c2.9,1.7,5.7,3.4,8.4,5c1.1,0.6,2.1,1.5,3.2,2.1
	c36.2-15.1,62.9-32.8,80.6-51.8c-2.1-0.6-4.2-1.1-6.5-1.7c-11.2-2.7-23.6-5.3-36.8-7.4c-2.5,4.8-5.3,9.5-8.6,14.1
	C438.8,400.3,425.6,413.5,408.5,425.5L408.5,425.5z M423.3,435.2c5.9,4.6,10.7,9.9,14.7,15.6c46.9-10.1,87.1-26.3,117-46.3
	c-9.7-8.2-27.1-16-50.5-22.3C486.6,401.5,459.9,419.8,423.3,435.2L423.3,435.2z M438.6,193.9c-3.4,4.8-7.4,9.5-12.2,13.7
	c34.9,15.1,61.4,33.5,78.9,53.4c0.4,0.6,0.8,1.1,1.3,1.7c22.7-6.3,39.6-13.9,48.8-22.1C525.9,220.2,485.5,204,438.6,193.9
	L438.6,193.9z M423.7,209.9c-2.1,1.7-4.2,3.4-6.5,4.8c-1.7,1.1-3.4,2.3-5.3,3.4c13.7,10.3,25,21.5,34.1,33.7c5,6.9,9.5,14.1,13,21.2
	c12.6-2.1,24.6-4.4,35.3-7.2c3.2-0.8,6.1-1.5,9-2.3l-0.4-0.4C485.3,243.1,458.8,224.8,423.7,209.9L423.7,209.9z M408.5,219.7
	c-11.4,6.1-25.2,10.9-41.4,13.9c6.3,14.5,10.7,30.7,13.5,47.5c26.9-1.5,52.2-4.2,74.7-7.8c-3.4-6.7-7.4-13.5-12.2-20
	C434.2,241.4,422.6,230.1,408.5,219.7L408.5,219.7z M363.9,234.3c-11.4,1.9-23.8,2.9-37.2,2.9l0,0h-1.1l0,0c-17,0-32.4-1.7-46.1-4.6
	c-6.5,14.7-11.4,31.1-14.3,48.4c18.9,1.3,38.7,1.7,59.1,1.7c18.3,0,36-0.4,53-1.5C374.7,264.8,370,248.8,363.9,234.3L363.9,234.3z
	 M276.2,231.9c-14.7-3.6-27.3-8.8-37.7-15.4c-16,11.2-29.2,23.6-39.1,37c-4.6,6.1-8.4,12.4-11.8,18.9c22.3,3.8,47.3,6.7,74.3,8.4
	C264.8,263.5,269.5,246.9,276.2,231.9L276.2,231.9z M235.6,214.7c-0.8-0.6-1.7-1.1-2.5-1.7c-2.5-1.9-4.8-3.8-7.2-5.9
	c-38.1,15.1-66.7,34.1-85.4,54.9c4.4,1.3,9,2.5,13.9,3.8c9.3,2.3,19.1,4.2,29.7,6.1c3.4-6.9,7.6-13.7,12.6-20.4
	C206.8,238.3,219.6,225.6,235.6,214.7L235.6,214.7z M223.2,204.4c-4-4-7.4-8.2-10.3-12.8c-49,9.7-91.3,25.5-122.7,45.7
	c7.8,8.8,24,16.8,46.7,23.8l0.2-0.2C155.9,239.5,184.9,220.2,223.2,204.4L223.2,204.4z M216.7,190.9c2.7,4.2,6.1,8.4,10.1,12.2
	c20.8-8.2,44.6-15.4,70.7-21C269.1,183.1,241.9,186.3,216.7,190.9L216.7,190.9z M229.5,205.7c1.7,1.5,3.6,3.2,5.7,4.6
	c1.1,0.8,2.3,1.7,3.4,2.3c14.1-9.5,30.5-17.9,49-24.8C266.3,192.8,247,198.9,229.5,205.7L229.5,205.7z M241.5,214.5
	c9.9,6.1,21.9,10.9,36,14.3c3.6-7.6,7.6-14.7,12-21.2c6.5-9.5,14.1-17.7,22.7-24.2C284.6,190.9,261.1,201.7,241.5,214.5L241.5,214.5
	z M280.8,229.6c13,2.7,28,4.4,44.6,4.4l0,0h1.1c13,0,25-1.1,36-2.7c-3.6-7.8-7.6-15.1-12.2-21.9c-8-11.6-17.3-21-28-27.8
	c-0.4,0-1.1,0-1.5,0h-0.2c-10.7,6.7-20.2,16.2-28,27.8C288.2,215.5,284.2,222.3,280.8,229.6L280.8,229.6z M365.8,230.5
	c15.4-2.7,28.6-7.2,39.8-12.8c-20.4-14.3-45.4-26.1-75.3-34.5c8.4,6.5,16,14.7,22.7,24.2C357.8,214.5,362,222.3,365.8,230.5
	L365.8,230.5z M408.7,216c2.3-1.3,4.4-2.5,6.3-4c1.7-1.1,3.4-2.3,4.8-3.6c-19.1-8-40.8-14.9-65-20.6
	C375.7,195.3,393.6,205,408.7,216L408.7,216z M423.1,206.1c4.6-4,8.6-8.4,12-13c-27.8-5.9-58.1-9.7-89.6-10.9
	C374.5,188.4,400.5,196.6,423.1,206.1L423.1,206.1z M88.1,405.7c8.4-9.3,25.5-17.7,48.8-24.8c-0.8-0.8-1.7-1.9-2.3-2.7
	c-15.4-18.3-22.7-37.4-22.7-56.8H32c0,0.4,0,0.6,0,1.1C31.8,353.5,52.8,382.4,88.1,405.7L88.1,405.7z M140.5,379.8
	c4.2-1.3,8.6-2.3,13.3-3.6c9.5-2.3,19.6-4.4,30.3-6.3c-8-15.8-11.8-32.4-11.8-48.8h-57c0,18.5,7.2,37,21.9,54.7
	C138.2,377.1,139.5,378.6,140.5,379.8L140.5,379.8z M187.6,369.5c22.3-3.8,47.3-6.5,74.3-8.4c-2.1-13-3.2-26.5-3.2-39.8h-83.1
	C175.6,337.6,179.4,353.8,187.6,369.5L187.6,369.5z M265.3,360.9c18.9-1.3,38.7-1.7,59.3-1.7c18.3,0,36,0.4,53,1.5
	c2.1-12.8,3.2-26.1,3.2-39.3H261.9C261.9,334.6,263,347.9,265.3,360.9L265.3,360.9z M380.8,360.7c26.9,1.5,52.2,4.2,74.7,7.8
	c7.8-15.4,11.4-31.3,11.4-47.3h-82.9C383.9,334.4,382.9,347.7,380.8,360.7L380.8,360.7z M459,369.1c13,2.1,25,4.6,36,7.2
	c2.7,0.6,5.5,1.5,8.2,2.1c0.8-0.8,1.5-1.7,2.1-2.5c14.7-17.7,21.9-36.2,21.9-54.7h-57C470.2,337.3,466.6,353.5,459,369.1L459,369.1z
	 M506.8,379.4c23.4,6.5,40.8,14.5,50.7,23.1c32.6-22.7,52-50.5,52-80.4c0-0.4,0-0.6,0-1.1h-78.7c0,19.1-7.4,38.5-22.7,56.8
	C507.6,378.6,507.2,379,506.8,379.4L506.8,379.4z M558.1,242.3c-9.5,8.6-26.5,16.6-49,23.1c13.5,16.8,20.8,34.5,21.5,52.6h78.7
	C607.6,289.8,588.8,263.7,558.1,242.3L558.1,242.3z M505.5,266.2c-3.4,0.8-6.9,1.9-10.5,2.7c-10.5,2.5-22.3,4.8-34.7,6.9
	c6.1,13.5,9.5,27.6,9.9,41.9h57C526.4,300.3,519.2,282.9,505.5,266.2L505.5,266.2z M456.9,276.5c-22.7,3.6-48.4,6.3-75.5,8
	c1.5,9.5,2.3,19.4,2.5,29c0,1.5,0,2.7,0,4.2h82.9C466.4,303.9,463,290,456.9,276.5L456.9,276.5z M378,284.8
	c-17.3,1.1-35.1,1.5-53.4,1.5c-20.6,0-40.6-0.6-59.7-1.9c-1.5,9.7-2.3,19.4-2.7,29.2c0,1.5,0,2.7,0,4.2h118.7c0-1.5,0-2.7,0-4.2
	C380.3,304.1,379.3,294.2,378,284.8L378,284.8z M261.3,284.3c-27.3-1.9-52.6-4.6-75.3-8.6c-6.5,13.7-9.9,28-10.3,42.3h82.9
	c0-1.5,0-2.7,0-4.2C259,303.7,259.8,293.8,261.3,284.3L261.3,284.3z M182.6,275.1c-10.3-1.9-20-3.8-28.8-6.1
	c-5.5-1.3-10.7-2.7-15.6-4.2c-14.3,17-22.1,34.9-22.9,53h57C172.9,303.3,176.3,289,182.6,275.1L182.6,275.1z M134.6,263.9
	c-22.7-6.9-39.1-15.4-47.1-24.6c-33.2,22.1-53.6,49.2-55.5,78.5h79.9C112.7,299.3,120.5,281,134.6,263.9L134.6,263.9z"/>
<path class="st0" d="M115.3,362h16.4c9.5,0,16.4-2.9,20.6-9c4.2-6.1,6.3-15.8,6.3-29.2c0-13.5-1.9-23.4-5.9-29.7
	c-4-6.3-10.1-9.5-18.7-9.5h-18.9L115.3,362L115.3,362z M95.3,383.6V263.7h38.9c15.4,0,26.7,5,34.3,14.9s11.4,25,11.4,45.2
	c0,10.9-1.5,20.6-4.2,29c-2.7,8.4-6.7,15.1-12,20.2c-4,3.8-8.4,6.5-13.5,8.2s-12.2,2.5-21.2,2.5L95.3,383.6L95.3,383.6z
	 M230.1,287.7l-13.9,51.1H244L230.1,287.7L230.1,287.7z M218.1,263.7h23.8l36,120.1h-21.7l-6.7-24.6H211l-6.5,24.6h-21.7
	L218.1,263.7L218.1,263.7z M306.7,316.1h24.2c5.3,0,9-1.3,11.6-3.8s3.8-6.5,3.8-12c0-5.3-1.3-9.3-3.6-11.8c-2.3-2.7-5.9-4-10.7-4
	h-25.2V316.1L306.7,316.1z M286.1,383.6V263.7h48.4c10.9,0,18.9,2.7,24.2,8.4c5.3,5.7,7.8,14.1,7.8,25.7c0,7.4-1.3,13.5-3.8,18.3
	c-2.5,4.8-6.3,8.2-10.9,10.1c4.4,1.9,7.4,4.6,9.3,8.4c1.9,3.8,2.9,9.7,3.2,17.9l0.4,14.1c0,0.2,0,0.2,0,0.4c0.2,7.2,1.5,11.6,3.8,13
	v3.6h-22.5c-0.6-1.7-1.3-3.8-1.7-6.3s-0.6-5.5-0.6-8.8l-0.2-12.6c-0.2-7.4-1.5-12.4-3.6-15.1c-2.1-2.5-5.9-4-11.4-4h-21.7v46.7
	L286.1,383.6L286.1,383.6z M403.9,319.3h19.8c5.3,0,9.3-1.3,11.8-4.2c2.5-2.7,3.6-7.2,3.6-13.3c0-5.7-1.3-10.1-3.6-13
	c-2.3-2.9-5.9-4.4-10.7-4.4h-21v34.9H403.9z M403.7,340.9v42.7h-20.6V263.7h44.4c10.5,0,18.3,3.4,23.8,9.9c5.5,6.5,8,16.2,8,28.8
	c0,12.4-2.7,21.9-8,28.6s-12.8,10.1-22.7,10.1h-24.8V340.9z M501.9,287.7l-13.9,51.1h27.8L501.9,287.7L501.9,287.7z M490.2,263.7
	h23.8l36,120.1h-21.5l-6.7-24.6H483l-6.5,24.6h-21.7L490.2,263.7L490.2,263.7z"/>
<path class="st0" d="M115.3,362h16.4c9.5,0,16.4-2.9,20.6-9c4.2-6.1,6.3-15.8,6.3-29.2c0-13.5-1.9-23.4-5.9-29.7
	c-4-6.3-10.1-9.5-18.7-9.5h-18.9L115.3,362L115.3,362z M95.3,383.6V263.7h38.9c15.4,0,26.7,5,34.3,14.9s11.4,25,11.4,45.2
	c0,10.9-1.5,20.6-4.2,29c-2.7,8.4-6.7,15.1-12,20.2c-4,3.8-8.4,6.5-13.5,8.2s-12.2,2.5-21.2,2.5L95.3,383.6L95.3,383.6z
	 M230.1,287.7l-13.9,51.1H244L230.1,287.7L230.1,287.7z M218.1,263.7h23.8l36,120.1h-21.7l-6.7-24.6H211l-6.5,24.6h-21.7
	L218.1,263.7L218.1,263.7z M306.7,316.1h24.2c5.3,0,9-1.3,11.6-3.8s3.8-6.5,3.8-12c0-5.3-1.3-9.3-3.6-11.8c-2.3-2.7-5.9-4-10.7-4
	h-25.2V316.1L306.7,316.1z M286.1,383.6V263.7h48.4c10.9,0,18.9,2.7,24.2,8.4c5.3,5.7,7.8,14.1,7.8,25.7c0,7.4-1.3,13.5-3.8,18.3
	c-2.5,4.8-6.3,8.2-10.9,10.1c4.4,1.9,7.4,4.6,9.3,8.4c1.9,3.8,2.9,9.7,3.2,17.9l0.4,14.1c0,0.2,0,0.2,0,0.4c0.2,7.2,1.5,11.6,3.8,13
	v3.6h-22.5c-0.6-1.7-1.3-3.8-1.7-6.3s-0.6-5.5-0.6-8.8l-0.2-12.6c-0.2-7.4-1.5-12.4-3.6-15.1c-2.1-2.5-5.9-4-11.4-4h-21.7v46.7
	L286.1,383.6L286.1,383.6z M403.9,319.3h19.8c5.3,0,9.3-1.3,11.8-4.2c2.5-2.7,3.6-7.2,3.6-13.3c0-5.7-1.3-10.1-3.6-13
	c-2.3-2.9-5.9-4.4-10.7-4.4h-21v34.9H403.9z M403.7,340.9v42.7h-20.6V263.7h44.4c10.5,0,18.3,3.4,23.8,9.9c5.5,6.5,8,16.2,8,28.8
	c0,12.4-2.7,21.9-8,28.6s-12.8,10.1-22.7,10.1h-24.8V340.9z M501.9,287.7l-13.9,51.1h27.8L501.9,287.7L501.9,287.7z M490.2,263.7
	h23.8l36,120.1h-21.5l-6.7-24.6H483l-6.5,24.6h-21.7L490.2,263.7L490.2,263.7z"/>
</svg>
